<svg xmlns="http://www.w3.org/2000/svg" viewBox="0 0 500 320" width="100%" height="100%">
  <!-- Outer Elliptical Swooshes -->
  <!-- Top Orange Swoosh -->
  <path d="M 180 110 C 260 80 400 70 410 130 C 420 180 340 210 280 220" fill="none" stroke="#E67E22" stroke-width="4" stroke-linecap="round" />
  
  <!-- Bottom Blue Swoosh -->
  <path d="M 320 210 C 240 240 100 250 90 190 C 80 140 160 110 220 100" fill="none" stroke="#2980B9" stroke-width="4" stroke-linecap="round" />

  <!-- BPS Geometric Blocks -->
  <!-- Blue Top Left Block -->
  <path d="M 160 80 L 210 80 L 185 145 L 140 145 Z" fill="#2980B9" />
  
  <!-- Blue Middle Block -->
  <path d="M 140 155 L 235 155 L 210 225 L 175 225 Z" fill="#3498DB" />

  <!-- Green Bottom Block -->
  <path d="M 175 235 L 225 235 L 195 320 L 150 320 Z" fill="#2ECC71" />

  <!-- Orange Top Right Block -->
  <path d="M 230 80 L 285 80 L 270 145 L 220 145 Z" fill="#E67E22" />

  <!-- Orange Middle Right Block -->
  <path d="M 220 155 L 290 155 L 275 225 L 235 225 Z" fill="#F39C12" />
</svg>
